<svg width="27" height="28" viewBox="0 0 27 28" fill="none" xmlns="http://www.w3.org/2000/svg">
<path fill-rule="evenodd" clip-rule="evenodd" d="M18.8412 6.3501C18.7095 6.3501 18.5792 6.37603 18.4575 6.42642C18.3359 6.47681 18.2253 6.55066 18.1322 6.64377C18.0391 6.73688 17.9653 6.84741 17.9149 6.96906C17.8645 7.0907 17.8386 7.22109 17.8386 7.35276V10.8064H14.4964C14.2997 10.8748 14.1293 11.0027 14.0087 11.1724C13.888 11.3421 13.8232 11.5451 13.8232 11.7533C13.8232 11.9615 13.888 12.1645 14.0087 12.3342C14.1293 12.5039 14.2997 12.6318 14.4964 12.7003H18.9526C19.1604 12.6538 19.348 12.5423 19.4882 12.3821C19.6284 12.2218 19.714 12.0211 19.7325 11.809V7.35276C19.734 7.10506 19.6438 6.86556 19.4792 6.68042C19.3147 6.49528 19.0874 6.37762 18.8412 6.3501ZM17.95 11.0292V10.8064H18.1728V11.0292H17.95Z" fill="#D4D9E1"/>
<path fill-rule="evenodd" clip-rule="evenodd" d="M5.69629 14.1489C5.69629 10.3611 9.03849 7.2417 12.9377 7.2417C16.0571 7.2417 18.7309 9.13561 19.6221 11.9208H17.6168C16.7255 10.2497 15.0544 9.13561 12.9377 9.13561C9.92974 9.13561 7.70161 11.3637 7.70161 14.1489C7.70161 16.8227 9.92974 19.1622 12.9377 19.1622C14.943 19.1622 16.7255 18.0481 17.6168 16.4884C17.8396 16.0428 18.3966 15.82 18.9537 16.0428C19.3993 16.2656 19.6221 16.8227 19.3993 17.1569C18.2852 19.385 15.8343 21.0561 12.9377 21.0561C9.03849 21.0561 5.69629 17.9367 5.69629 14.1489Z" fill="#98A4B7"/>
</svg>
