<svg width="19" height="18" viewBox="0 0 19 18" fill="none" xmlns="http://www.w3.org/2000/svg">
<path d="M18.1258 6.13059C18.1258 3.49954 15.993 1.3667 13.3624 1.3667C11.7654 1.3667 10.3562 2.15505 9.49162 3.36002C8.62699 2.15505 7.21781 1.3667 5.62132 1.3667C2.99026 1.3667 0.857422 3.49906 0.857422 6.13059C0.857422 6.50329 0.904733 6.86439 0.985837 7.21246C1.64722 11.3222 6.21656 15.6579 9.49162 16.8484C12.7662 15.6579 17.336 11.3222 17.9964 7.21295C18.0785 6.86488 18.1258 6.50377 18.1258 6.13059Z" fill="#98A4B7"/>
<path d="M15.971 6.87368C15.971 6.40418 15.8786 5.93927 15.699 5.50549C15.5194 5.07171 15.2561 4.67757 14.9241 4.34556C14.5921 4.01355 14.198 3.75019 13.7643 3.57051C13.3305 3.39082 12.8656 3.29834 12.3961 3.29834C11.8278 3.29863 11.2677 3.43452 10.7624 3.69472C10.2571 3.95492 9.82119 4.33192 9.49086 4.79442C9.16085 4.3317 8.72507 3.95452 8.21981 3.69429C7.71454 3.43406 7.15442 3.29831 6.58608 3.29834C5.63784 3.29834 4.72844 3.67503 4.05793 4.34553C3.38743 5.01604 3.01074 5.92544 3.01074 6.87368C3.01074 7.15319 3.04647 7.42451 3.10681 7.6852C3.60357 10.7696 7.03263 14.0243 9.49086 14.9175C11.9486 14.0239 15.3781 10.7696 15.8744 7.68568C15.9357 7.42451 15.971 7.15319 15.971 6.87368Z" fill="#D9D9D9"/>
</svg>
