<svg width="25" height="25" viewBox="0 0 25 25" fill="none" xmlns="http://www.w3.org/2000/svg">
<path d="M24.2353 7.93112C24.2353 4.28813 21.2821 1.33496 17.6398 1.33496C15.4286 1.33496 13.4774 2.42652 12.2802 4.09495C11.0831 2.42652 9.13189 1.33496 6.92136 1.33496C3.27836 1.33496 0.325195 4.28746 0.325195 7.93112C0.325195 8.44716 0.390702 8.94715 0.503 9.4291C1.41876 15.1195 7.74554 21.1228 12.2802 22.7712C16.8143 21.1228 23.1417 15.1195 24.0561 9.42977C24.1698 8.94782 24.2353 8.44783 24.2353 7.93112Z" fill="#F4ABBA"/>
<path d="M21.2516 8.95974C21.2517 8.30967 21.1237 7.66595 20.875 7.06533C20.6263 6.46472 20.2617 5.91898 19.802 5.45928C19.3424 4.99957 18.7967 4.63491 18.1961 4.38612C17.5956 4.13733 16.9518 4.00928 16.3018 4.00928C15.5148 4.00968 14.7393 4.19783 14.0397 4.55811C13.3401 4.91839 12.7365 5.44039 12.2791 6.08077C11.8222 5.44009 11.2188 4.91784 10.5192 4.55752C9.8196 4.1972 9.04404 4.00923 8.2571 4.00928C6.94416 4.00928 5.68499 4.53084 4.7566 5.45923C3.82821 6.38763 3.30664 7.6468 3.30664 8.95974C3.30664 9.34677 3.35611 9.72243 3.43966 10.0834C4.12748 14.3541 8.87541 18.8607 12.2791 20.0973C15.6821 18.86 20.4307 14.354 21.1179 10.0841C21.2028 9.72243 21.2516 9.34677 21.2516 8.95974Z" fill="#EA596E"/>
<path d="M18.4234 9.93476C18.4235 9.4896 18.336 9.04876 18.1658 8.63744C17.9955 8.22611 17.7459 7.85236 17.4312 7.53752C17.1165 7.22268 16.7428 6.97293 16.3316 6.80253C15.9203 6.63214 15.4795 6.54443 15.0344 6.54443C13.898 6.54443 12.8954 7.10525 12.2797 7.96353C11.9669 7.52461 11.5536 7.16682 11.0745 6.91997C10.5953 6.67313 10.0641 6.54437 9.52509 6.54443C9.07982 6.54426 8.63887 6.63183 8.22746 6.80215C7.81605 6.97247 7.44223 7.22219 7.12738 7.53705C6.81252 7.8519 6.5628 8.22572 6.39248 8.63713C6.22216 9.04854 6.13459 9.48949 6.13477 9.93476C6.13477 10.2001 6.16819 10.4568 6.22567 10.7041C6.69692 13.6292 9.94821 16.7147 12.2791 17.5617C14.6086 16.7141 17.8619 13.6286 18.3318 10.7041C18.3906 10.4568 18.4234 10.1995 18.4234 9.93476Z" fill="#DD2E44"/>
</svg>
