<svg width="42" height="38" viewBox="0 0 42 38" fill="none" xmlns="http://www.w3.org/2000/svg">
<path d="M36.4768 4.39599C34.5016 2.16372 31.8834 0.801268 29.0951 0.554745C26.3068 0.308223 23.5322 1.19388 21.2725 3.05174C18.9018 1.06402 15.951 0.162691 13.0143 0.529262C10.0777 0.895834 7.37331 2.50308 5.44582 5.02733C3.51832 7.55158 2.51088 10.8053 2.62637 14.1334C2.74185 17.4614 3.97168 20.6165 6.0682 22.9634L17.6391 36.0277C18.608 37.1027 19.913 37.7051 21.2725 37.7051C22.6319 37.7051 23.9369 37.1027 24.9059 36.0277L36.4768 22.9634C38.6523 20.496 39.8734 17.1585 39.8734 13.6797C39.8734 10.2009 38.6523 6.86338 36.4768 4.39599ZM33.8495 20.0648L22.2786 33.1082C22.147 33.2581 21.9903 33.3771 21.8176 33.4582C21.6449 33.5394 21.4596 33.5812 21.2725 33.5812C21.0854 33.5812 20.9001 33.5394 20.7274 33.4582C20.5547 33.3771 20.398 33.2581 20.2663 33.1082L8.69541 20.0018C7.23415 18.318 6.4159 16.0562 6.4159 13.7007C6.4159 11.3452 7.23415 9.08332 8.69541 7.39953C10.1844 5.74231 12.1927 4.81306 14.2852 4.81306C16.3777 4.81306 18.386 5.74231 19.875 7.39953C20.0482 7.5964 20.2543 7.75266 20.4814 7.85929C20.7084 7.96592 20.952 8.02082 21.1979 8.02082C21.4439 8.02082 21.6875 7.96592 21.9145 7.85929C22.1416 7.75266 22.3477 7.5964 22.5209 7.39953C24.0099 5.74231 26.0182 4.81306 28.1107 4.81306C30.2032 4.81306 32.2114 5.74231 33.7005 7.39953C35.1818 9.06125 36.0269 11.3108 36.0548 13.6664C36.0827 16.022 35.2911 18.2962 33.8495 20.0018V20.0648Z" fill="black"/>
<path d="M36.4768 4.39599C34.5016 2.16372 31.8834 0.801268 29.0951 0.554745C26.3068 0.308223 23.5322 1.19388 21.2725 3.05174C18.9018 1.06402 15.951 0.162691 13.0143 0.529262C10.0777 0.895834 7.37331 2.50308 5.44582 5.02733C3.51832 7.55158 2.51088 10.8053 2.62637 14.1334C2.74185 17.4614 3.97168 20.6165 6.0682 22.9634L17.6391 36.0277C18.608 37.1027 19.913 37.7051 21.2725 37.7051C22.6319 37.7051 23.9369 37.1027 24.9059 36.0277L36.4768 22.9634C38.6523 20.496 39.8734 17.1585 39.8734 13.6797C39.8734 10.2009 38.6523 6.86338 36.4768 4.39599ZM33.8495 20.0648L22.2786 33.1082C22.147 33.2581 21.9903 33.3771 21.8176 33.4582C21.6449 33.5394 21.4596 33.5812 21.2725 33.5812C21.0854 33.5812 20.9001 33.5394 20.7274 33.4582C20.5547 33.3771 20.398 33.2581 20.2663 33.1082L8.69541 20.0018C7.23415 18.318 6.4159 16.0562 6.4159 13.7007C6.4159 11.3452 7.23415 9.08332 8.69541 7.39953C10.1844 5.74231 12.1927 4.81306 14.2852 4.81306C16.3777 4.81306 18.386 5.74231 19.875 7.39953C20.0482 7.5964 20.2543 7.75266 20.4814 7.85929C20.7084 7.96592 20.952 8.02082 21.1979 8.02082C21.4439 8.02082 21.6875 7.96592 21.9145 7.85929C22.1416 7.75266 22.3477 7.5964 22.5209 7.39953C24.0099 5.74231 26.0182 4.81306 28.1107 4.81306C30.2032 4.81306 32.2114 5.74231 33.7005 7.39953C35.1818 9.06125 36.0269 11.3108 36.0548 13.6664C36.0827 16.022 35.2911 18.2962 33.8495 20.0018V20.0648Z" fill="#F11A1A"/>
</svg>
