<svg width="39" height="39" viewBox="0 0 39 39" fill="none" xmlns="http://www.w3.org/2000/svg">
<path d="M22.588 1.91892C21.2911 -0.387037 17.8776 -0.387037 16.5787 1.91892C14.8705 4.95536 13.4624 8.14432 12.3735 11.4424C12.3221 11.5715 12.2318 11.6821 12.1145 11.7597C11.9972 11.8372 11.8586 11.8779 11.717 11.8764C8.79882 11.9506 5.8901 12.2342 3.0143 12.7248C0.354735 13.1782 -0.816904 16.2995 1.20412 18.2319C1.45874 18.4758 1.71601 18.7184 1.97593 18.9597C3.92299 20.7632 5.98459 22.4446 8.14842 23.9939C8.24672 24.0577 8.3212 24.151 8.36066 24.2598C8.40011 24.3686 8.40242 24.4869 8.36723 24.5971C7.27484 27.8035 6.49427 31.1035 6.03589 34.4534C5.65794 37.2244 8.65766 38.9252 10.9989 37.7498C13.8413 36.3248 16.5591 34.6736 19.1248 32.8129C19.2592 32.7199 19.4197 32.67 19.5843 32.67C19.7489 32.67 19.9095 32.7199 20.0438 32.8129C22.6081 34.6758 25.3261 36.3271 28.1697 37.7498C30.511 38.9252 33.5107 37.2244 33.1328 34.4534C32.6751 31.1036 31.8951 27.8035 30.8034 24.5971C30.7682 24.4869 30.7705 24.3686 30.81 24.2598C30.8495 24.151 30.9239 24.0577 31.0222 23.9939C33.4739 22.2384 35.7939 20.3135 37.9645 18.2338C39.9856 16.2995 38.8139 13.1782 36.1544 12.7248C33.2779 12.2341 30.3685 11.9505 27.4496 11.8764C27.3084 11.8775 27.1702 11.8366 27.0533 11.7591C26.9364 11.6816 26.8464 11.5712 26.7952 11.4424C25.7097 8.14305 24.2995 4.95378 22.588 1.91892Z" fill="#FFFF00"/>
</svg>
