<svg width="22" height="22" viewBox="0 0 22 22" fill="none" xmlns="http://www.w3.org/2000/svg">
<path fill-rule="evenodd" clip-rule="evenodd" d="M9.315 4.14028C8.7738 4.04485 8.25769 4.40624 8.1622 4.94745L7.79686 7.01966H6.11596C5.56639 7.01966 5.12088 7.46523 5.12088 8.01474C5.12088 8.56433 5.56639 9.00983 6.11596 9.00983H7.44589L6.7441 12.99H5.12008C4.57051 12.99 4.125 13.4355 4.125 13.9851C4.125 14.5347 4.57051 14.9802 5.12008 14.9802H6.39319L6.08871 16.7069C5.99328 17.2482 6.35466 17.7643 6.89589 17.8597C7.43709 17.9552 7.9532 17.5938 8.04862 17.0526L8.41403 14.9802H12.3629L12.0585 16.7069C11.963 17.2482 12.3244 17.7643 12.8656 17.8597C13.4068 17.9552 13.9229 17.5938 14.0184 17.0526L14.3838 14.9802H16.0659C16.6155 14.9802 17.061 14.5347 17.061 13.9851C17.061 13.4355 16.6155 12.99 16.0659 12.99H14.7347L15.4365 9.00983H17.0618C17.6114 9.00983 18.0569 8.56433 18.0569 8.01474C18.0569 7.46523 17.6113 7.01966 17.0618 7.01966H15.7874L16.0919 5.29304C16.1873 4.75182 15.8259 4.23572 15.2847 4.14028C14.7435 4.04485 14.2274 4.40624 14.132 4.94745L13.7666 7.01966H9.8177L10.1221 5.29304C10.2175 4.75182 9.8562 4.23572 9.315 4.14028ZM12.7139 12.99L13.4157 9.00983H9.4668L8.76493 12.99H12.7139Z" fill="#98A4B7"/>
</svg>
