<svg width="20" height="14" viewBox="0 0 20 14" fill="none" xmlns="http://www.w3.org/2000/svg">
<path fill-rule="evenodd" clip-rule="evenodd" d="M0.0600479 6.29617C0.0472941 6.14667 0.0846982 5.99364 0.17311 5.86174C0.330104 5.63081 4.07563 0.175507 9.57389 0.023002C9.68029 0.0197308 9.78655 0.01849 9.89258 0.0192721C13.2772 -0.00561894 16.4887 1.99794 19.447 5.87987C19.6448 6.14036 19.6632 6.48755 19.4952 6.7676C19.4185 6.89416 18.4895 8.3992 16.8937 9.90357C15.2995 11.4065 13.0247 12.923 10.2564 13.0448H10.2556C10.1389 13.0492 10.019 13.0536 9.89912 13.0536C6.52207 13.0536 3.26733 10.9424 0.214244 6.82949C0.0971814 6.67142 0.045384 6.48214 0.0600479 6.29617ZM9.83002 12.8157C9.85303 12.8158 9.87611 12.816 9.89912 12.816C10.0133 12.816 10.1283 12.8117 10.2456 12.8073C12.9255 12.6893 15.1451 11.219 16.7203 9.73399C18.2932 8.25128 19.2087 6.7676 19.2809 6.64871C19.3455 6.54095 19.3712 6.41965 19.3591 6.30189C19.3498 6.40108 19.3183 6.49929 19.2642 6.58937C19.1163 6.8334 15.5754 12.5676 10.1271 12.8072C10.0282 12.8109 9.92898 12.8146 9.83002 12.8157ZM9.95109 2.89941C9.93063 2.89911 9.9101 2.89889 9.88957 2.89889C7.90589 2.89889 6.29241 4.4501 6.29241 6.35423C6.29241 6.37393 6.29263 6.39356 6.29293 6.41311C6.32602 4.49078 7.94837 2.93115 9.95109 2.89941ZM13.4862 6.41416C13.4531 8.27091 11.8862 9.7773 9.95184 9.80904C8.06478 9.77738 6.53989 8.29189 6.53989 6.47304C6.53989 4.63449 8.09802 3.13659 10.0134 3.13659C11.9082 3.13659 13.4534 4.6026 13.4862 6.41416Z" fill="#98A4B7"/>
</svg>
